<?xml version="1.0" encoding="UTF-8" standalone="no"?>
<svg id="Layer_1" data-name="Layer 1" xmlns="http://www.w3.org/2000/svg" viewBox="0 0 864.74 975.77">
	<defs>
		<style>
			.cls-1{fill:#00d1d4;}
			.cls-1,.cls-2,.cls-3,.cls-4,.cls-5{stroke:#fff;stroke-miterlimit:10;}
			.cls-2{fill:#00e91a;}
			.cls-3{fill:#f15a24;}
			.cls-4{fill:#f1ff3f;}
			.cls-5{fill:#f0f;}
		</style>
	</defs>
	<polygon class="cls-1" points="0.67 326.62 12.17 697.2 326.17 825.2 526.17 505.2 309.17 173.2 0.67 326.62"/>
	<polygon class="cls-2" points="319.17 165.2 512.17 1.2 821.17 182.2 864.17 477.2 541.25 492.7 319.17 165.2"/>
	<polygon class="cls-3" points="536.17 516.2 335.17 837.2 536.17 974.1 843.17 774.2 864.17 499.7 536.17 516.2"/>
	<polygon class="cls-4" points="1.17 294.2 42.17 219.2 315.17 52.97 480.09 1.2 302.17 154.2 1.17 294.2"/>
	<polygon class="cls-5" points="22.17 725.2 63.17 783.2 347.17 922.39 503.99 974.1 313.85 849.65 22.17 725.2"/>
</svg>